<?xml version="1.0" encoding="UTF-8" standalone="no"?>
<!DOCTYPE svg PUBLIC "-//W3C//DTD SVG 1.1//EN" "http://www.w3.org/Graphics/SVG/1.1/DTD/svg11.dtd">
<svg version="1.1" xmlns="http://www.w3.org/2000/svg" xmlns:xlink="http://www.w3.org/1999/xlink" preserveAspectRatio="xMidYMid meet" viewBox="0 0 640 640" width="640" height="640"><defs><path d="M291.66 134.64C293.76 105.12 317.15 80.97 346.6 77.95C350.74 77.52 354.82 77.52 358.77 77.89C364.17 78.4 369.16 74.98 370.94 69.84C384.22 31.27 420.81 3.57 463.9 3.57C496.23 3.57 524.88 19.18 542.81 43.25C547.38 49.39 554.51 52.99 562.16 52.94C562.32 52.94 562.47 52.94 562.63 52.94C603.94 52.94 637.36 86.78 636.67 128.26C635.99 168.85 602.02 201.03 561.41 201.03C519.73 201.03 394.69 201.03 353.01 201.03C317.56 201.03 289.11 170.61 291.66 134.64Z" id="a1jSjTVKbN"></path><path d="M291.66 134.64C293.76 105.12 317.15 80.97 346.6 77.95C350.74 77.52 354.82 77.52 358.77 77.89C364.17 78.4 369.16 74.98 370.94 69.84C384.22 31.27 420.81 3.57 463.9 3.57C496.23 3.57 524.88 19.18 542.81 43.25C547.38 49.39 554.51 52.99 562.16 52.94C562.32 52.94 562.47 52.94 562.63 52.94C603.94 52.94 637.36 86.78 636.67 128.26C635.99 168.85 602.02 201.03 561.41 201.03C519.73 201.03 394.69 201.03 353.01 201.03C317.56 201.03 289.11 170.61 291.66 134.64Z" id="b6MYbhrkPo"></path><path d="M542.81 43.25C524.88 19.18 496.23 3.57 463.9 3.57C458.06 3.57 452.34 4.1 446.8 5.07C471.99 9.5 493.86 23.54 508.54 43.25C513.11 49.39 520.25 52.99 527.89 52.94C528.06 52.93 528.2 52.93 528.36 52.93C569.68 52.93 603.09 86.77 602.4 128.26C601.73 168.85 567.75 201.03 527.15 201.03C530.57 201.03 557.99 201.03 561.41 201.03C602.02 201.03 635.99 168.85 636.67 128.26C637.36 86.77 603.94 52.94 562.63 52.94C562.48 52.94 562.32 52.94 562.16 52.94C554.51 52.99 547.38 49.39 542.81 43.25Z" id="e8LzYK4k5"></path><path d="M542.81 43.25C524.88 19.18 496.23 3.57 463.9 3.57C458.06 3.57 452.34 4.1 446.8 5.07C471.99 9.5 493.86 23.54 508.54 43.25C513.11 49.39 520.25 52.99 527.89 52.94C528.06 52.93 528.2 52.93 528.36 52.93C569.68 52.93 603.09 86.77 602.4 128.26C601.73 168.85 567.75 201.03 527.15 201.03C530.57 201.03 557.99 201.03 561.41 201.03C602.02 201.03 635.99 168.85 636.67 128.26C637.36 86.77 603.94 52.94 562.63 52.94C562.48 52.94 562.32 52.94 562.16 52.94C554.51 52.99 547.38 49.39 542.81 43.25Z" id="a8EgW3VN4H"></path><path d="M562.16 52.94C554.51 52.99 547.38 49.39 542.81 43.25C541.47 41.43 540.05 39.69 538.58 37.98C502.94 51.84 477.6 86.51 477.6 127C477.6 133.16 482.6 138.17 488.78 138.17C494.95 138.17 499.96 133.16 499.96 127C499.96 86.67 532.75 53.85 573.08 53.85C573.39 53.85 573.7 53.82 573.99 53.81C570.29 53.24 566.49 52.94 562.63 52.94C562.48 52.94 562.32 52.94 562.16 52.94Z" id="dfpuedJvR"></path><path d="M562.16 52.94C554.51 52.99 547.38 49.39 542.81 43.25C541.47 41.43 540.05 39.69 538.58 37.98C502.94 51.84 477.6 86.51 477.6 127C477.6 133.16 482.6 138.17 488.78 138.17C494.95 138.17 499.96 133.16 499.96 127C499.96 86.67 532.75 53.85 573.08 53.85C573.39 53.85 573.7 53.82 573.99 53.81C570.29 53.24 566.49 52.94 562.63 52.94C562.48 52.94 562.32 52.94 562.16 52.94Z" id="d1X228il5"></path><path d="M548.87 274.06C538.64 238.92 506.2 213.26 467.78 213.26C453.41 213.26 439.89 216.86 428.05 223.19C423.4 225.68 417.64 224.38 414.69 220.03C403.31 203.2 384.06 192.15 362.23 192.15C357.12 192.15 352.14 192.75 347.4 193.9C342.24 195.14 336.92 192.38 335.25 187.34C319.96 141.08 276.38 107.7 224.99 107.7C160.86 107.7 108.88 159.69 108.88 223.82C108.88 225.27 108.92 226.72 108.98 228.16C109.04 229.58 108.57 230.99 107.69 232.11C107.69 232.12 107.61 232.22 107.6 232.23C106.51 233.64 104.84 234.47 103.05 234.57C46.86 237.63 2.36 284.59 3.34 341.76C4.32 399.56 52.4 445.5 110.21 445.5C154.29 445.5 506.89 445.5 550.97 445.5C597.38 445.5 636.07 408.57 636.67 362.17C637.28 315.01 599.24 276.59 552.22 276.59C552.22 276.59 552.2 276.59 552.2 276.59C550.64 276.59 549.3 275.55 548.87 274.06Z" id="dgiqSt6UC"></path><path d="M548.87 274.06C538.64 238.92 506.2 213.26 467.78 213.26C453.41 213.26 439.89 216.86 428.05 223.19C423.4 225.68 417.64 224.38 414.69 220.03C403.31 203.2 384.06 192.15 362.23 192.15C357.12 192.15 352.14 192.75 347.4 193.9C342.24 195.14 336.92 192.38 335.25 187.34C319.96 141.08 276.38 107.7 224.99 107.7C160.86 107.7 108.88 159.69 108.88 223.82C108.88 225.27 108.92 226.72 108.98 228.16C109.04 229.58 108.57 230.99 107.69 232.11C107.69 232.12 107.61 232.22 107.6 232.23C106.51 233.64 104.84 234.47 103.05 234.57C46.86 237.63 2.36 284.59 3.34 341.76C4.32 399.56 52.4 445.5 110.21 445.5C154.29 445.5 506.89 445.5 550.97 445.5C597.38 445.5 636.07 408.57 636.67 362.17C637.28 315.01 599.24 276.59 552.22 276.59C552.22 276.59 552.2 276.59 552.2 276.59C550.64 276.59 549.3 275.55 548.87 274.06Z" id="e15IrBOnd"></path><path d="M548.87 274.06C538.64 238.92 506.2 213.26 467.78 213.26C453.41 213.26 439.89 216.86 428.05 223.19C423.4 225.68 417.64 224.38 414.69 220.03C403.31 203.2 384.06 192.15 362.23 192.15C357.12 192.15 352.14 192.75 347.4 193.9C342.24 195.14 336.92 192.38 335.25 187.34C319.96 141.08 276.38 107.7 224.99 107.7C160.86 107.7 108.88 159.69 108.88 223.82C108.88 225.27 108.92 226.72 108.98 228.16C109.04 229.58 108.57 230.99 107.69 232.11C107.69 232.12 107.61 232.22 107.6 232.23C106.51 233.64 104.84 234.47 103.05 234.57C46.86 237.63 2.36 284.59 3.34 341.76C4.32 399.56 52.4 445.5 110.21 445.5C154.29 445.5 506.89 445.5 550.97 445.5C597.38 445.5 636.07 408.57 636.67 362.17C637.28 315.01 599.24 276.59 552.22 276.59C552.22 276.59 552.2 276.59 552.2 276.59C550.64 276.59 549.3 275.55 548.87 274.06Z" id="b1wpJTqMrw"></path><path d="M548.87 274.06C538.64 238.92 506.2 213.26 467.78 213.26C453.41 213.26 439.89 216.86 428.05 223.19C423.4 225.68 417.64 224.38 414.69 220.03C403.31 203.2 384.06 192.15 362.23 192.15C357.12 192.15 352.14 192.75 347.4 193.9C342.24 195.14 336.92 192.38 335.25 187.34C319.96 141.08 276.38 107.7 224.99 107.7C160.86 107.7 108.88 159.69 108.88 223.82C108.88 225.27 108.92 226.72 108.98 228.16C109.04 229.58 108.57 230.99 107.69 232.11C107.69 232.12 107.61 232.22 107.6 232.23C106.51 233.64 104.84 234.47 103.05 234.57C46.86 237.63 2.36 284.59 3.34 341.76C4.32 399.56 52.4 445.5 110.21 445.5C154.29 445.5 506.89 445.5 550.97 445.5C597.38 445.5 636.07 408.57 636.67 362.17C637.28 315.01 599.24 276.59 552.22 276.59C552.22 276.59 552.2 276.59 552.2 276.59C550.64 276.59 549.3 275.55 548.87 274.06Z" id="b6nTTdu5VM"></path><path d="M548.87 274.06C538.64 238.92 506.2 213.26 467.78 213.26C462.78 213.26 457.9 213.71 453.14 214.54C484.96 220.11 510.66 243.51 519.56 274.06C519.99 275.55 521.33 276.59 522.89 276.59C522.89 276.59 522.92 276.59 522.92 276.59C569.93 276.59 607.96 315.01 607.36 362.17C606.76 408.57 568.07 445.5 521.66 445.5C524.59 445.5 548.03 445.5 550.97 445.5C597.38 445.5 636.07 408.57 636.67 362.17C637.28 315.01 599.24 276.59 552.22 276.59C552.22 276.59 552.2 276.59 552.2 276.59C550.64 276.59 549.3 275.55 548.87 274.06Z" id="aB1g4Fefi"></path><path d="M548.87 274.06C538.64 238.92 506.2 213.26 467.78 213.26C462.78 213.26 457.9 213.71 453.14 214.54C484.96 220.11 510.66 243.51 519.56 274.06C519.99 275.55 521.33 276.59 522.89 276.59C522.89 276.59 522.92 276.59 522.92 276.59C569.93 276.59 607.96 315.01 607.36 362.17C606.76 408.57 568.07 445.5 521.66 445.5C524.59 445.5 548.03 445.5 550.97 445.5C597.38 445.5 636.07 408.57 636.67 362.17C637.28 315.01 599.24 276.59 552.22 276.59C552.22 276.59 552.2 276.59 552.2 276.59C550.64 276.59 549.3 275.55 548.87 274.06Z" id="e49jRhZ2F3"></path><path d="M224 339.93C224 274.57 173.28 220.83 109.14 215.98C108.98 218.57 108.88 221.18 108.88 223.82C108.88 225.27 108.92 226.72 108.98 228.16C109.04 229.58 108.57 230.99 107.69 232.11C107.69 232.12 107.61 232.22 107.6 232.23C106.51 233.64 104.84 234.47 103.05 234.57C102.2 234.6 101.37 234.69 100.53 234.77C158.14 235.22 204.88 282.21 204.88 339.93C204.88 345.21 209.16 349.49 214.44 349.49C219.72 349.49 224 345.21 224 339.93Z" id="dKpk852bT"></path><path d="M224 339.93C224 274.57 173.28 220.83 109.14 215.98C108.98 218.57 108.88 221.18 108.88 223.82C108.88 225.27 108.92 226.72 108.98 228.16C109.04 229.58 108.57 230.99 107.69 232.11C107.69 232.12 107.61 232.22 107.6 232.23C106.51 233.64 104.84 234.47 103.05 234.57C102.2 234.6 101.37 234.69 100.53 234.77C158.14 235.22 204.88 282.21 204.88 339.93C204.88 345.21 209.16 349.49 214.44 349.49C219.72 349.49 224 345.21 224 339.93Z" id="b5f9Grm9V1"></path><path d="M332.05 178.79C296.76 191.26 271.38 224.94 271.38 264.45C271.38 269.74 275.66 274.01 280.93 274.01C286.22 274.01 290.5 269.74 290.5 264.45C290.5 230.36 314.41 201.48 346.34 194.15C341.53 194.75 336.81 192.02 335.25 187.34C334.3 184.44 333.22 181.59 332.05 178.79Z" id="h2JPUTuQV"></path><path d="M332.05 178.79C296.76 191.26 271.38 224.94 271.38 264.45C271.38 269.74 275.66 274.01 280.93 274.01C286.22 274.01 290.5 269.74 290.5 264.45C290.5 230.36 314.41 201.48 346.34 194.15C341.53 194.75 336.81 192.02 335.25 187.34C334.3 184.44 333.22 181.59 332.05 178.79Z" id="e2gPxpaL0Q"></path><path d="M458.22 365.82C458.22 398.5 474.17 427.49 498.69 445.48C503.92 445.48 545.75 445.48 550.97 445.48C552 445.48 553 445.45 554.02 445.41C511.48 443.84 477.34 408.74 477.34 365.82C477.34 360.54 473.05 356.27 467.78 356.27C462.51 356.27 458.22 360.54 458.22 365.82Z" id="c1TfLPA8tL"></path><path d="M458.22 365.82C458.22 398.5 474.17 427.49 498.69 445.48C503.92 445.48 545.75 445.48 550.97 445.48C552 445.48 553 445.45 554.02 445.41C511.48 443.84 477.34 408.74 477.34 365.82C477.34 360.54 473.05 356.27 467.78 356.27C462.51 356.27 458.22 360.54 458.22 365.82Z" id="alQpNsAw7"></path></defs><g><g><g><g><use xlink:href="#a1jSjTVKbN" opacity="1" fill="#daeaff" fill-opacity="1"></use><g><use xlink:href="#a1jSjTVKbN" opacity="1" fill-opacity="0" stroke="#000000" stroke-width="1" stroke-opacity="0"></use></g></g><g><use xlink:href="#b6MYbhrkPo" opacity="1" fill="#000000" fill-opacity="0"></use><g><use xlink:href="#b6MYbhrkPo" opacity="1" fill-opacity="0" stroke="#000000" stroke-width="1" stroke-opacity="0"></use></g></g><g><use xlink:href="#e8LzYK4k5" opacity="1" fill="#bed8fb" fill-opacity="1"></use><g><use xlink:href="#e8LzYK4k5" opacity="1" fill-opacity="0" stroke="#000000" stroke-width="1" stroke-opacity="0"></use></g></g><g><use xlink:href="#a8EgW3VN4H" opacity="1" fill="#000000" fill-opacity="0"></use><g><use xlink:href="#a8EgW3VN4H" opacity="1" fill-opacity="0" stroke="#000000" stroke-width="1" stroke-opacity="0"></use></g></g><g><use xlink:href="#dfpuedJvR" opacity="1" fill="#cbe0fc" fill-opacity="1"></use><g><use xlink:href="#dfpuedJvR" opacity="1" fill-opacity="0" stroke="#000000" stroke-width="1" stroke-opacity="0"></use></g></g><g><use xlink:href="#d1X228il5" opacity="1" fill="#000000" fill-opacity="0"></use><g><use xlink:href="#d1X228il5" opacity="1" fill-opacity="0" stroke="#000000" stroke-width="1" stroke-opacity="0"></use></g></g></g><g><g><use xlink:href="#dgiqSt6UC" opacity="1" fill="#ecf4ff" fill-opacity="1"></use><g><use xlink:href="#dgiqSt6UC" opacity="1" fill-opacity="0" stroke="#000000" stroke-width="1" stroke-opacity="0"></use></g></g><g><use xlink:href="#e15IrBOnd" opacity="1" fill="#000000" fill-opacity="0"></use><g><use xlink:href="#e15IrBOnd" opacity="1" fill-opacity="0" stroke="#000000" stroke-width="1" stroke-opacity="0"></use></g></g><g><use xlink:href="#b1wpJTqMrw" opacity="1" fill="#ecf4ff" fill-opacity="1"></use><g><use xlink:href="#b1wpJTqMrw" opacity="1" fill-opacity="0" stroke="#000000" stroke-width="1" stroke-opacity="0"></use></g></g><g><use xlink:href="#b6nTTdu5VM" opacity="1" fill="#000000" fill-opacity="0"></use><g><use xlink:href="#b6nTTdu5VM" opacity="1" fill-opacity="0" stroke="#000000" stroke-width="1" stroke-opacity="0"></use></g></g><g><use xlink:href="#aB1g4Fefi" opacity="1" fill="#daeaff" fill-opacity="1"></use><g><use xlink:href="#aB1g4Fefi" opacity="1" fill-opacity="0" stroke="#000000" stroke-width="1" stroke-opacity="0"></use></g></g><g><use xlink:href="#e49jRhZ2F3" opacity="1" fill="#000000" fill-opacity="0"></use><g><use xlink:href="#e49jRhZ2F3" opacity="1" fill-opacity="0" stroke="#000000" stroke-width="1" stroke-opacity="0"></use></g></g><g><use xlink:href="#dKpk852bT" opacity="1" fill="#ddeafb" fill-opacity="1"></use><g><use xlink:href="#dKpk852bT" opacity="1" fill-opacity="0" stroke="#000000" stroke-width="1" stroke-opacity="0"></use></g></g><g><use xlink:href="#b5f9Grm9V1" opacity="1" fill="#000000" fill-opacity="0"></use><g><use xlink:href="#b5f9Grm9V1" opacity="1" fill-opacity="0" stroke="#000000" stroke-width="1" stroke-opacity="0"></use></g></g><g><use xlink:href="#h2JPUTuQV" opacity="1" fill="#ddeafb" fill-opacity="1"></use><g><use xlink:href="#h2JPUTuQV" opacity="1" fill-opacity="0" stroke="#000000" stroke-width="1" stroke-opacity="0"></use></g></g><g><use xlink:href="#e2gPxpaL0Q" opacity="1" fill="#000000" fill-opacity="0"></use><g><use xlink:href="#e2gPxpaL0Q" opacity="1" fill-opacity="0" stroke="#000000" stroke-width="1" stroke-opacity="0"></use></g></g><g><use xlink:href="#c1TfLPA8tL" opacity="1" fill="#ddeafb" fill-opacity="1"></use><g><use xlink:href="#c1TfLPA8tL" opacity="1" fill-opacity="0" stroke="#000000" stroke-width="1" stroke-opacity="0"></use></g></g><g><use xlink:href="#alQpNsAw7" opacity="1" fill="#000000" fill-opacity="0"></use><g><use xlink:href="#alQpNsAw7" opacity="1" fill-opacity="0" stroke="#000000" stroke-width="1" stroke-opacity="0"></use></g></g></g></g></g></svg>